<svg width="222" height="220" viewBox="0 0 222 220" fill="none" xmlns="http://www.w3.org/2000/svg">
<g clip-path="url(#clip0_6_75)">
<path d="M54.4047 5.95047C53.3005 15.1521 50.0492 26.3782 48.4543 26.3782C48.0249 26.3782 45.0803 25.1514 41.9517 23.6791C36.9215 21.348 29.2534 19.0169 26.4315 19.0169C25.6953 19.0169 26.0634 20.1211 27.8424 23.7405C30.5416 29.2001 32.9954 37.727 32.6886 40.6716L32.5046 42.6346L26.9836 43.0641C10.9113 44.2909 3.36586 45.0271 3.36586 45.3338C3.36586 45.5792 6.06503 48.4624 9.37766 51.8363C15.5735 58.0935 20.113 64.7801 19.8062 67.1111C19.6835 67.9701 16.555 70.5463 10.1138 75.0247C4.89948 78.6442 0.543999 81.895 0.42131 82.2022C0.29862 82.5088 0.973413 82.9382 1.95493 83.1834C8.51884 84.5947 11.3407 85.5145 13.6718 86.8643C16.8617 88.7659 20.1743 91.5879 21.8307 93.9189L23.0576 95.6362L16.1869 102.446C10.4205 108.212 9.43898 109.378 10.1752 110.053C10.6659 110.482 14.3466 111.893 18.3953 113.12C22.4441 114.347 26.0021 115.635 26.3088 115.942C26.6155 116.248 26.1247 119.377 24.9592 123.671C23.9164 127.659 23.2416 131.155 23.4256 131.462C23.7323 132.014 33.8542 131.523 35.5105 130.91C37.0441 130.358 37.6576 131.83 38.087 136.676C38.3324 139.498 38.7004 141.891 38.9458 142.013C39.4366 142.32 46.3072 139.375 46.3072 138.884C46.3072 138.701 45.5097 137.412 44.5282 136.002C41.7064 131.891 39.8047 127.659 38.0256 121.769C37.1668 118.702 35.8786 114.592 35.2652 112.567C34.5904 110.544 33.9156 107.783 33.7929 106.433C32.934 99.9309 32.8113 97.5384 33.4248 97.5384C33.7315 97.5384 34.0383 98.5811 34.0383 99.808C34.0996 102.569 35.4492 109.93 36.3694 112.567C36.7374 113.549 37.903 117.169 38.9458 120.542C41.461 128.456 45.0803 135.572 48.2089 138.701C49.6812 140.173 52.8711 142.259 55.9383 143.669L61.0912 146.062L60.9075 148.331L60.7232 150.602L47.0434 155.141L33.3634 159.742L31.5844 165.569C30.6029 168.821 27.8424 178.452 25.3886 187.04C22.9349 195.567 20.6037 202.928 20.2357 203.296C19.8676 203.664 18.7634 206.977 17.8432 210.719C16.9231 214.4 16.0643 217.958 15.8802 218.51C15.5735 219.553 18.0273 219.614 61.5821 219.614C105.198 219.614 107.652 219.553 107.652 218.51C107.652 217.958 104.769 214.768 101.211 211.456C97.6528 208.143 94.7694 205.076 94.7694 204.585C94.7694 204.155 96.9782 201.886 99.6158 199.555C106.364 193.788 106.425 193.42 103.665 186.365C99.0026 174.526 89.0032 156.245 85.3223 152.81C84.1567 151.706 83.7272 150.663 83.7272 149.007C83.7272 146.491 84.2796 145.878 87.4081 144.835C90.5982 143.792 93.7267 141.4 95.8741 138.394C97.5913 136.002 98.3274 135.572 103.051 134.1C105.934 133.18 108.265 132.198 108.265 131.953C108.265 131.646 107.161 130.051 105.812 128.456C103.174 125.266 102.683 122.996 104.462 122.444C105.014 122.26 107.161 121.953 109.186 121.708C111.21 121.524 113.05 121.217 113.296 121.033C113.848 120.788 110.719 112.077 109.983 111.77C109.738 111.648 109.492 111.095 109.492 110.482C109.492 109.746 110.351 109.194 112.56 108.641C116.363 107.66 125.442 103.305 125.442 102.507C125.442 102.139 124.276 101.28 122.866 100.544C115.013 96.5566 108.633 91.9559 109.922 91.2198C110.167 91.097 112.437 90.3609 114.891 89.6248C117.345 88.8888 121.332 87.3552 123.785 86.2505C128.019 84.3489 136.73 79.1959 136.361 78.8279C136.116 78.6442 119.491 71.5281 117.896 70.9757C117.16 70.6692 116.977 70.3011 117.283 69.7488C117.528 69.2585 121.577 65.3324 126.239 61.0383C130.841 56.6826 134.644 52.9405 134.644 52.6951C134.644 52.2044 130.84 51.5296 119.614 49.9347C115.565 49.3212 112.007 48.7078 111.762 48.4624C111.455 48.217 114.277 42.8187 118.019 36.5002C124.093 26.1329 125.258 23.9245 124.644 23.9245C124.522 23.9245 119.491 25.7035 113.48 27.9119C104.707 31.1018 102.315 31.7153 101.702 31.1018C100.352 29.7522 99.0635 19.6303 99.0635 10.5513V1.779L94.0947 4.41682C88.2671 7.54541 80.4764 13.6185 76.8569 17.8514C75.5071 19.5076 74.0964 20.8572 73.8512 20.8572C73.5441 20.8572 71.213 18.0354 68.5753 14.5387C64.0361 8.52693 56.3677 0 55.5089 0C55.2635 0 54.7728 2.69917 54.4047 5.95047ZM56.1224 159.68C53.8526 161.46 42.2585 192.071 43.1786 193.666C43.4853 194.217 46.1232 196.733 49.0677 199.309C52.0736 201.886 54.5888 204.278 54.7115 204.646C54.8341 205.014 54.098 206.364 53.0551 207.652C52.0736 208.94 51.2148 209.615 51.2148 209.186C51.2148 208.817 51.7669 207.713 52.503 206.854L53.7913 205.199L47.9022 199.678C43.7921 195.812 42.0131 193.727 42.0131 192.745C42.0131 190.782 49.0064 172.011 53.3005 162.38C54.3434 160.048 55.2022 158.883 55.9383 158.883C56.9198 158.944 56.9198 159.006 56.1224 159.68Z" fill="#F5F5F5"/>
<path d="M158.814 86.1897C141.577 89.3182 132.068 96.1271 119.738 114.347C117.039 118.273 116.855 118.764 116.855 122.567C116.855 125.511 116.242 128.395 114.647 133.363C111.947 141.768 112.07 143.731 115.934 150.295C117.468 152.871 118.695 155.325 118.695 155.632C118.695 156 117.897 157.165 116.855 158.27C113.603 161.766 113.665 167.164 117.039 170.784C119.002 172.808 123.603 174.71 124.83 173.912C125.136 173.729 124.707 172.317 123.909 170.722C123.05 169.189 122.376 167.471 122.437 166.919C122.437 166.306 122.744 166.49 123.112 167.471C124.155 169.741 129.001 177.225 131.393 180.169C136.117 186.059 146.3 192.009 155.809 194.524C158.692 195.261 163.784 195.935 168.078 196.119C172.126 196.303 174.887 196.671 174.212 196.917C170.531 198.205 153.6 195.812 145.809 192.868L141.761 191.334L140.718 192.745C136.853 197.837 132.436 209.431 131.332 217.283L131.025 219.614H169.059C205.007 219.614 207.093 219.553 206.786 218.51C206.602 217.958 205.621 214.277 204.639 210.351C202.492 201.886 200.774 197.653 198.014 194.034C196.91 192.561 195.99 191.028 195.99 190.598C196.051 190.23 197.584 188.758 199.486 187.408C202.922 184.954 207.645 179.986 210.221 176.06C211.08 174.771 212.43 173.729 213.657 173.361C214.7 173.053 216.663 171.766 218.012 170.539C222.245 166.49 222.675 160.969 218.932 157.717C217.644 156.613 217.46 156.061 217.828 154.098C218.073 152.871 218.441 151.706 218.687 151.521C218.932 151.338 219.485 149.558 219.914 147.534C220.527 144.59 220.527 142.32 219.914 136.002C219.485 131.707 218.871 128.211 218.564 128.211C218.258 128.211 218.073 126.493 218.135 124.346C218.258 120.972 217.951 119.929 215.742 115.635C212.798 109.807 208.443 103.428 204.026 98.6425C201.327 95.6977 199.547 94.5321 192.615 91.097C187.708 88.7045 182.677 86.68 180.224 86.1897C175.132 85.085 164.704 85.085 158.814 86.1897Z" fill="#F5F5F5"/>
<path d="M86.7955 153.116C86.7955 153.301 87.961 155.018 89.4332 156.92C90.9053 158.822 92.9298 161.828 94.0339 163.484C96.9173 168.085 103.604 182.439 105.567 188.144C107.714 194.217 107.53 194.647 101.088 200.106C98.6345 202.192 96.6107 204.401 96.6107 204.891C96.6107 205.444 99.3706 208.388 102.745 211.578C106.426 214.952 108.879 217.713 108.879 218.449C108.879 219.553 109.37 219.614 117.467 219.614C123.909 219.614 126.056 219.43 126.056 218.817C126.056 216.24 111.027 162.196 109.615 159.619C109.37 159.128 105.444 157.84 100.905 156.675C96.3649 155.57 91.6414 154.221 90.3529 153.669C87.8382 152.687 86.7955 152.503 86.7955 153.116Z" fill="#F5F5F5"/>
</g>
<defs>
<clipPath id="clip0_6_75">
<rect width="221.17" height="220" fill="white" transform="translate(0.406921)"/>
</clipPath>
</defs>
</svg>
